<svg xmlns="http://www.w3.org/2000/svg" width="512" height="512" viewBox="0 0 512 512" version="1.1">
	<path d="M 235.500 22.107 C 188.853 27.012, 141.216 47.327, 105 77.760 C 68.212 108.674, 43.232 148.736, 30.553 197.154 C 25.398 216.840, 23.914 227.356, 23.290 248.608 C 22.500 275.564, 24.839 295.417, 31.524 318.485 C 53.651 394.843, 109.786 453.615, 183.916 478.034 C 208.252 486.050, 229.129 489.243, 257 489.209 C 293.777 489.165, 325.331 481.803, 358.500 465.528 C 384.352 452.843, 402.297 439.659, 423.682 417.640 C 466.446 373.609, 488.911 319.274, 488.980 259.711 C 489.019 226.392, 484.066 200.395, 471.792 169.500 C 445.503 103.326, 391.099 52.932, 322.902 31.585 C 294.659 22.744, 262.553 19.263, 235.500 22.107 M 231.769 59.061 C 205.636 62.654, 174.683 73.827, 152.280 87.755 C 135.280 98.323, 119.040 112.205, 105.261 127.946 C 82.624 153.807, 65.805 193.377, 61.045 231.974 C 59.545 244.133, 59.790 270.764, 61.512 282.883 C 71.042 349.928, 108.376 402.323, 167.490 431.611 C 181.625 438.614, 201.748 445.623, 217.500 449.029 C 231.627 452.085, 265.539 452.898, 282.161 450.581 C 337.892 442.811, 388.965 411.328, 419.542 365.895 C 441.623 333.085, 454.197 284.559, 451.042 244.332 C 445.512 173.825, 414.128 121.298, 356.534 86.153 C 337.239 74.379, 316.724 66.300, 293.659 61.390 C 283.193 59.162, 278.507 58.755, 260 58.469 C 248.175 58.286, 235.471 58.552, 231.769 59.061 M 238 103.622 C 216.787 107.584, 206.100 110.927, 191.958 118.022 C 164.999 131.548, 142.838 152.021, 128.659 176.500 C 110.198 208.371, 104.433 250.647, 113.483 287.797 C 124.696 333.825, 161.996 375.245, 206.312 390.879 C 223.590 396.974, 233.211 398.432, 256 398.409 C 273.459 398.390, 278.051 398.053, 286.957 396.133 C 334.543 385.872, 373.748 352.945, 391.361 308.446 C 393.332 303.466, 396.189 294.466, 397.711 288.446 C 400.305 278.182, 400.478 276.161, 400.489 256 C 400.498 238.910, 400.125 232.761, 398.674 226.024 C 392.073 195.386, 377.446 167.696, 356.879 146.900 C 337.265 127.068, 314.160 113.602, 288 106.756 C 277.622 104.041, 274.745 103.718, 258.500 103.451 C 248.600 103.288, 239.375 103.365, 238 103.622 M 231.500 116.033 C 205.356 121.530, 179.398 135.658, 160.100 154.896 C 148.690 166.270, 142.423 174.824, 135.506 188.461 C 124.629 209.906, 120.460 229.743, 121.312 256 C 122.047 278.688, 125.338 292.388, 134.699 311.740 C 147.339 337.871, 171.433 361.824, 198 374.671 C 217.136 383.924, 232.791 387.442, 254.500 387.369 C 292.946 387.239, 324.829 374.250, 351.040 348.040 C 371.189 327.890, 382.972 305.017, 387.550 277.169 C 389.646 264.418, 389.096 236.743, 386.514 225 C 374.340 169.643, 331.120 126.305, 277.715 115.906 C 264.607 113.353, 243.976 113.410, 231.500 116.033 M 244 119.570 C 242.625 119.810, 238.125 120.502, 234 121.108 C 196.501 126.614, 157.370 155.514, 139.581 190.840 C 121.237 227.267, 121.094 274.102, 139.219 310 C 151.512 334.348, 171.190 354.867, 194.221 367.352 C 203.836 372.564, 219.520 378.206, 231.272 380.680 C 242.835 383.115, 268.421 383.108, 280 380.668 C 321.415 371.940, 354.204 346.989, 372.053 310.618 C 384.558 285.136, 387.912 256.437, 381.884 226.500 C 376.155 198.049, 363.680 175.402, 342.672 155.319 C 318.821 132.517, 290.670 120.319, 260 119.495 C 252.575 119.296, 245.375 119.330, 244 119.570 M 237.655 131.529 C 198.753 138.893, 162.079 167.731, 146.970 202.839 C 132.530 236.393, 134.055 275.409, 151.078 307.962 C 167.269 338.922, 194.311 360.027, 229 368.776 C 238.181 371.091, 241.448 371.418, 255 371.377 C 272.900 371.323, 283.149 369.434, 298.283 363.399 C 327.595 351.710, 347.569 333.457, 360.668 306.388 C 376.622 273.419, 376.598 234.420, 360.603 198.583 C 350.338 175.583, 324.823 151.235, 299.083 139.877 C 279.668 131.309, 255.890 128.078, 237.655 131.529 M 192 198.976 C 192 199.513, 192.892 201.418, 193.981 203.210 C 195.513 205.728, 195.847 207.606, 195.453 211.484 C 194.034 225.464, 190.874 258.445, 189.511 273.500 C 187.965 290.582, 186.408 302.971, 185.392 306.280 C 184.885 307.933, 185.765 308.041, 197.673 307.780 L 210.500 307.500 210.709 301.500 C 211.549 277.418, 213.325 240.467, 213.881 235.500 L 214.553 229.500 216.301 234.500 C 217.262 237.250, 224.675 254.928, 232.774 273.785 L 247.500 308.069 253.963 307.785 L 260.425 307.500 270.738 281 C 276.410 266.425, 282.949 249.100, 285.268 242.500 L 289.484 230.500 290.174 237.500 C 292.404 260.144, 295 294.014, 295 300.476 L 295 308 308.500 308 C 323.509 308, 323.079 308.241, 320.996 300.993 C 319.853 297.020, 312.692 239.993, 310.926 220.805 C 309.812 208.712, 309.910 205.362, 311.523 200.250 L 312.233 198 299.640 198 C 287.671 198, 286.975 198.112, 285.612 200.250 C 284.823 201.488, 280.013 212.400, 274.924 224.500 C 256.838 267.497, 255.084 271.472, 254.048 271.817 C 253.472 272.009, 253 271.633, 253 270.980 C 253 270.328, 249.134 261.178, 244.409 250.647 C 239.683 240.116, 232.860 224.750, 229.246 216.500 C 225.632 208.250, 222.003 200.713, 221.182 199.750 C 219.894 198.239, 217.796 198, 205.845 198 C 197.510 198, 192 198.388, 192 198.976 M 330.849 301.432 C 329.336 304.754, 331.081 309, 333.960 309 C 336.140 309, 337.401 305.863, 336.833 301.852 C 336.341 298.378, 332.368 298.099, 330.849 301.432" stroke="none" fill="white" fill-rule="evenodd"/>
</svg>