<?xml version="1.0" encoding="UTF-8"?>
<svg version="1.1" xmlns="http://www.w3.org/2000/svg" width="500" height="500">
<path d="M0 0 C1.8034668 0.12890625 1.8034668 0.12890625 4 1 C5.59301758 3.52734375 5.59301758 3.52734375 7.14453125 6.9375 C7.4307988 7.55612915 7.71706635 8.1747583 8.01200867 8.81213379 C8.95945245 10.8686758 9.88580109 12.93403707 10.8125 15 C11.47658318 16.45175871 12.14196953 17.90292196 12.80859375 19.35351562 C14.54719379 23.14631499 16.26820846 26.94681327 17.98394775 30.75 C19.5800116 34.28440845 21.18678469 37.81393214 22.79296875 41.34375 C24.65596782 45.43995578 26.51730908 49.53688584 28.37231445 53.63671875 C32.97139858 63.79347497 37.68032914 73.89524984 42.43347168 83.98068237 C47.62023137 94.99109186 52.67814092 106.05586169 57.69192505 117.14596558 C63.28755167 129.51560251 69.06449853 141.7891281 75 154 C79.43037941 145.40672418 83.43215451 136.67645041 87.31738281 127.82763672 C93.24942209 114.32482504 99.31380447 100.88809351 105.5 87.5 C111.47815158 74.55591012 117.34033101 61.56598895 123.10839844 48.52697754 C130.288328 32.29771867 137.62508295 16.14144888 145 0 C145.99 0 146.98 0 148 0 C149.35383153 2.70766306 149.46851577 5.18338823 149.82138062 8.1960144 C149.89770584 8.83854129 149.97403106 9.48106817 150.05266917 10.14306557 C150.30868117 12.30574944 150.55932748 14.46902223 150.81005859 16.63232422 C150.99218442 18.17967206 151.17466255 19.72697848 151.35746765 21.27424622 C151.75127931 24.61287009 152.14283902 27.95174786 152.53275681 31.2908287 C153.15058231 36.57922808 153.77495942 41.86684091 154.40054321 47.15432739 C156.17879622 62.19275184 157.94853388 77.232171 159.7109375 92.27246094 C160.68380041 100.57433775 161.6623082 108.87553035 162.6467787 117.17603886 C163.26865503 122.42219933 163.88360341 127.66910954 164.4933126 132.91669726 C164.87634203 136.19888408 165.26595527 139.48026546 165.65734291 142.76146507 C165.8362037 144.27190835 166.01244137 145.7826652 166.185709 147.2937603 C167.23186333 164.08823646 167.23186333 164.08823646 175 178 C180.238826 180.8762182 185.0786194 181.61061216 191 182 C191 183.32 191 184.64 191 186 C172.52 186 154.04 186 135 186 C135 184.68 135 183.36 135 182 C135.61488281 181.89042969 136.22976563 181.78085937 136.86328125 181.66796875 C137.67152344 181.50941406 138.47976563 181.35085938 139.3125 181.1875 C140.11300781 181.03667969 140.91351563 180.88585937 141.73828125 180.73046875 C144.3975675 179.87159737 145.32373371 179.22964806 147 177 C148.82142131 163.82573859 146.04920831 149.31348129 144.84765625 136.17578125 C144.62535959 133.69577852 144.4035612 131.21573107 144.18223572 128.73564148 C143.71975829 123.56890494 143.25286829 118.40259363 142.7824707 113.23657227 C142.17937658 106.61174441 141.58503489 99.98618246 140.99364567 93.36030293 C140.53727533 88.25323746 140.0775618 83.14647761 139.61669731 78.0398159 C139.39626642 75.59540738 139.17659293 73.15093043 138.95768929 70.70638466 C138.65217869 67.30305977 138.34246572 63.90014413 138.03149414 60.49731445 C137.94158203 59.48797852 137.85166992 58.47864258 137.7590332 57.4387207 C137.673517 56.51251419 137.58800079 55.58630768 137.49989319 54.6320343 C137.42707154 53.82927724 137.3542499 53.02652018 137.27922153 52.19943714 C137.00873668 50.06881914 136.567141 48.06950324 136 46 C126.54133883 66.84500492 117.10284766 87.69733584 107.84207153 108.63113403 C104.17478872 116.91719404 100.47414352 125.186002 96.6953125 133.421875 C96.33747177 134.20196426 95.97963104 134.98205353 95.61094666 135.78578186 C93.90955958 139.49130655 92.20320524 143.19444287 90.48950195 146.89428711 C87.25261829 153.904235 84.12226789 160.94883641 81.15625 168.078125 C80.86725327 168.76682175 80.57825653 169.45551849 80.28050232 170.16508484 C77.89082707 175.98265845 76.24855455 181.82857323 75 188 C73.68 188.33 72.36 188.66 71 189 C63.68046665 173.88671544 56.51366297 158.71536489 49.56054688 143.43017578 C46.54638629 136.80486974 43.52393873 130.18334784 40.5 123.5625 C40.16932526 122.838349 39.83865051 122.114198 39.49795532 121.36810303 C33.68531079 108.64311972 27.82188196 95.94195434 21.9375 83.25 C21.54030762 82.39326691 21.14311523 81.53653381 20.73388672 80.65383911 C19.58210377 78.17008283 18.42987152 75.68653574 17.27734375 73.203125 C16.94866806 72.49484055 16.61999237 71.78655609 16.28135681 71.05680847 C12.86471862 63.6996542 9.43160828 56.35017981 6 49 C4.84334294 61.83108961 3.68712249 74.66221849 2.53144932 87.49339676 C1.99472967 93.4523227 1.45786335 99.41123535 0.9206543 105.37011719 C0.40158908 111.1278039 -0.11708099 116.88552609 -0.6354847 122.6432724 C-0.83268414 124.83274333 -1.03002257 127.02220175 -1.22750664 129.21164703 C-3.29424789 149.35425464 -3.29424789 149.35425464 -4.125 169.5625 C-4.12886719 170.24634766 -4.13273437 170.93019531 -4.13671875 171.63476562 C-4.13071177 174.70132823 -3.9774745 177.0675765 -3 180 C0.63 180.66 4.26 181.32 8 182 C8 183.32 8 184.64 8 186 C-8.5 186 -25 186 -42 186 C-42 184.68 -42 183.36 -42 182 C-41.20335937 181.90203125 -40.40671875 181.8040625 -39.5859375 181.703125 C-31.11506666 180.53344733 -31.11506666 180.53344733 -24 176 C-20.82080637 171.74285997 -20.19662433 167.43176259 -19.56103516 162.28710938 C-19.44054117 161.38096642 -19.32004719 160.47482346 -19.19590187 159.54122162 C-18.78068236 156.36268934 -18.38789392 153.18198103 -18 150 C-17.78008015 148.20479416 -17.78008015 148.20479416 -17.55571747 146.37332153 C-16.43660615 137.17118898 -15.36243071 127.9640256 -14.29595518 118.75566673 C-13.83286855 114.76332586 -13.36631186 110.77139058 -12.90005493 106.77941895 C-11.8218298 97.54330251 -10.74755661 88.30672868 -9.67380524 79.07009125 C-8.30017173 67.25515955 -6.92491941 55.44041768 -5.54563773 43.62614393 C-4.99286459 38.89016803 -4.44216996 34.15395654 -3.89312339 29.41754723 C-3.55236939 26.48141183 -3.209933 23.54547441 -2.86705208 20.60958672 C-2.63328579 18.60345766 -2.40158044 16.5970888 -2.16993713 14.5907135 C-1.95981743 12.79584755 -1.95981743 12.79584755 -1.74545288 10.96472168 C-1.62490728 9.92732597 -1.50436169 8.88993027 -1.38016319 7.82109833 C-1.02468431 5.18317626 -0.55472691 2.60254492 0 0 Z " fill="#F0F0F0" transform="translate(184,133)"/>
<path d="M0 0 C1.64142525 1.47577683 3.27143841 2.96440181 4.88671875 4.46875 C6.95691297 6.39347111 9.08421859 8.22184987 11.2421875 10.046875 C15.25086591 13.55247226 18.63145171 17.41588644 22.0546875 21.484375 C23.30765625 22.90556641 23.30765625 22.90556641 24.5859375 24.35546875 C35.58430377 36.90179678 44.29038817 50.74506345 52.0546875 65.484375 C52.39209961 66.11972168 52.72951172 66.75506836 53.07714844 67.40966797 C68.74630998 97.37980574 75.51279115 130.87444507 75.4296875 164.484375 C75.42947601 165.28397644 75.42926453 166.08357788 75.42904663 166.90740967 C75.39196023 181.06035512 74.15356681 194.6430511 71.0546875 208.484375 C70.86745117 209.33580078 70.68021484 210.18722656 70.48730469 211.06445312 C57.88248439 266.75207024 22.65672671 314.20426403 -25.09667969 344.86572266 C-50.89459883 360.9820021 -78.93086291 370.63800516 -108.9453125 375.484375 C-110.00790283 375.66250732 -111.07049316 375.84063965 -112.1652832 376.02416992 C-116.67104767 376.57273067 -121.09415293 376.68324866 -125.62890625 376.72265625 C-126.55328995 376.7324501 -127.47767365 376.74224396 -128.43006897 376.75233459 C-166.82216081 377.07543367 -166.82216081 377.07543367 -184.9453125 372.484375 C-186.26281494 372.16291504 -186.26281494 372.16291504 -187.60693359 371.83496094 C-227.05151267 362.01135179 -260.73716062 342.46098148 -289.9453125 314.484375 C-290.69554687 313.77539062 -291.44578125 313.06640625 -292.21875 312.3359375 C-320.54926445 284.90124959 -339.27608024 246.88622706 -347.7578125 208.734375 C-347.9527832 207.86127686 -348.14775391 206.98817871 -348.34863281 206.08862305 C-351.40106835 191.47380934 -352.35940066 176.87696341 -352.3203125 161.984375 C-352.31943634 161.15910309 -352.31856018 160.33383118 -352.31765747 159.48355103 C-352.13811937 107.87784032 -332.17296426 58.88999279 -297.9453125 20.484375 C-297.47706055 19.95440918 -297.00880859 19.42444336 -296.52636719 18.87841797 C-291.01178459 12.65524722 -285.40749042 6.74100376 -278.9453125 1.484375 C-278.44080566 1.06220703 -277.93629883 0.64003906 -277.41650391 0.20507812 C-244.85353053 -27.04130075 -206.10137555 -44.21170588 -163.9453125 -49.515625 C-163.19733398 -49.61133789 -162.44935547 -49.70705078 -161.67871094 -49.80566406 C-103.57425005 -56.46321831 -44.34351464 -37.87430162 0 0 Z M-147.55078125 -46.4296875 C-204.04877633 -44.46164744 -255.66133223 -17.99825731 -294.20117188 22.58349609 C-298.8094624 27.60591351 -302.92994704 32.98326028 -306.9453125 38.484375 C-307.72390625 39.54140625 -308.5025 40.5984375 -309.3046875 41.6875 C-315.18986211 49.92674445 -320.23296136 58.53154839 -324.9453125 67.484375 C-325.2841748 68.12262207 -325.62303711 68.76086914 -325.97216797 69.41845703 C-351.19531576 117.6612663 -354.12946568 174.73394569 -338.29345703 226.32788086 C-321.0227633 280.68924095 -283.05703899 323.97171524 -232.9453125 350.484375 C-232.28644043 350.83580566 -231.62756836 351.18723633 -230.94873047 351.54931641 C-203.20734499 366.10107616 -170.31662091 372.95147927 -139.1328125 372.859375 C-138.42764496 372.85883118 -137.72247742 372.85828735 -136.99594116 372.85772705 C-79.47209745 372.65629893 -27.63724477 348.30424147 13.0546875 308.484375 C51.82839761 268.79185659 71.84845298 214.16705874 71.26953125 159.08203125 C70.31220488 119.08243828 58.48760488 78.21334918 35.0546875 45.484375 C34.33925781 44.47890625 33.62382812 43.4734375 32.88671875 42.4375 C19.53283496 24.19113136 4.28707326 7.90234105 -13.9453125 -5.515625 C-14.79351562 -6.14726563 -15.64171875 -6.77890625 -16.515625 -7.4296875 C-47.73856064 -29.99675979 -85.66239949 -43.95199015 -124.1953125 -46.078125 C-124.94619141 -46.1198584 -125.69707031 -46.1615918 -126.47070312 -46.20458984 C-133.52012713 -46.57585143 -140.49435763 -46.59787961 -147.55078125 -46.4296875 Z " fill="#D6D6D6" transform="translate(396.9453125,78.515625)"/>
<path d="M0 0 C0.66 0.33 1.32 0.66 2 1 C-5.92 8.92 -13.84 16.84 -22 25 C-22.66 24.67 -23.32 24.34 -24 24 C-9.63982287 8.30490758 -9.63982287 8.30490758 -2 2 C-1.34 1.34 -0.68 0.68 0 0 Z " fill="#ffffff" transform="translate(120,78)"/>
</svg>
